<?xml version="1.0" encoding="UTF-8" standalone="no"?>
<svg
   width="837"
   height="256"
   viewBox="0 0 837 256"
   version="1.1"
   id="svg5"
   sodipodi:docname="embeddb.svg"
   inkscape:version="1.4 (e7c3feb100, 2024-10-09)"
   xmlns:inkscape="http://www.inkscape.org/namespaces/inkscape"
   xmlns:sodipodi="http://sodipodi.sourceforge.net/DTD/sodipodi-0.dtd"
   xmlns="http://www.w3.org/2000/svg"
   xmlns:svg="http://www.w3.org/2000/svg">
  <defs
     id="defs5" />
  <sodipodi:namedview
     id="namedview5"
     pagecolor="#ffffff"
     bordercolor="#000000"
     borderopacity="0.25"
     inkscape:showpageshadow="2"
     inkscape:pageopacity="0.0"
     inkscape:pagecheckerboard="0"
     inkscape:deskcolor="#d1d1d1"
     inkscape:zoom="3.9342891"
     inkscape:cx="120.4792"
     inkscape:cy="110.058"
     inkscape:window-width="3440"
     inkscape:window-height="1403"
     inkscape:window-x="0"
     inkscape:window-y="0"
     inkscape:window-maximized="1"
     inkscape:current-layer="svg5" />
  <path
     d="M 351 128.500 L 351 182 356.932 182 C 363.049 182, 365.244 180.480, 367.271 174.842 C 367.764 173.470, 368.575 173.856, 371.952 177.069 C 385.856 190.296, 411.347 182.928, 418.900 163.500 C 432.859 127.595, 404.436 91.037, 376.945 109.537 C 374.115 111.442, 371.732 113.001, 371.650 113.001 C 371.567 113.002, 371.640 104.452, 371.811 94.001 L 372.121 75 361.561 75 L 351 75 351 128.500 M 557.272 94.115 L 557.849 113.230 555.175 110.668 C 529.481 86.058, 495.014 129.128, 511.171 165.655 C 519.340 184.122, 545.607 189.952, 557.415 175.919 L 559.876 172.993 560.552 177.497 L 561.227 182 569.614 182 L 578 182 578 128.500 L 578 75 567.347 75 L 556.694 75 557.272 94.115 M 139 129.158 L 139 182 176.500 182 L 214 182 214 173 L 214 164 187 164 L 160 164 160 150.500 L 160 137 182 137 L 204 137 204 128.500 L 204 120 182 120 L 160 120 160 106.990 L 160 93.979 186.750 94.240 L 213.500 94.500 213.146 86 C 212.951 81.325, 212.726 77.441, 212.646 77.369 C 212.566 77.297, 195.963 77.030, 175.750 76.777 L 139 76.317 139 129.158 M 597.932 106.750 C 597.895 123.662, 597.896 147.625, 597.935 160 L 598.006 182.500 616.253 182.475 C 658.321 182.418, 675.202 165.973, 673.712 126.500 C 672.316 89.513, 656.703 76, 615.364 76 L 598 76 597.932 106.750 M 691 129 L 691 182 700.750 182.244 C 722.268 182.781, 734.251 182.080, 741.253 179.875 C 765.266 172.310, 768.795 142.010, 747.048 130.117 L 741.719 127.203 745.609 124.721 C 762.485 113.957, 761.620 89.429, 744.050 80.525 C 737.075 76.991, 729.471 76, 709.316 76 L 691 76 691 129 M 609 128.983 L 609 173.227 622.750 172.828 C 651.986 171.978, 664.211 157.974, 662.737 127.019 C 661.369 98.268, 649.681 86.119, 622.503 85.197 L 609 84.739 609 128.983 M 702 103.855 L 702 123 715.250 122.994 C 738.231 122.985, 746.286 117.922, 746.286 103.486 C 746.286 90.254, 739.472 86.043, 716.750 85.234 L 702 84.709 702 103.855 M 259.500 104.935 C 255.003 106.030, 250.843 108.461, 247.563 111.911 C 243.652 116.024, 243 115.822, 243 110.500 L 243 106 234 106 L 225 106 225 144.035 L 225 182.070 235.161 181.785 L 245.323 181.500 245.770 155 C 246.153 132.288, 246.451 128.235, 247.856 126.648 C 252.247 121.685, 261.828 120.328, 265.873 124.096 C 269.664 127.628, 270 130.271, 270 156.565 L 270 182 280.500 182 L 291 182 291.015 156.750 C 291.031 129.061, 291.200 128.130, 296.912 124.280 C 311.040 114.760, 316 123.263, 316 157.003 L 316 182.070 326.250 181.785 L 336.500 181.500 336.454 153 C 336.408 125.324, 336.339 124.347, 334.062 119.206 C 327.180 103.676, 305.388 99.653, 292.229 111.484 L 287.297 115.918 282.320 111.121 C 275.762 104.801, 268.329 102.786, 259.500 104.935 M 458.355 104.983 C 424.225 112.201, 418.778 165.552, 450.668 180.270 C 463.244 186.074, 485.616 182.182, 494.934 172.568 L 498.109 169.292 492.107 164.093 L 486.106 158.894 481.121 162.323 C 468.126 171.262, 453.209 166.294, 450.366 152.080 L 449.750 149 475.491 149 L 501.233 149 500.544 142.250 C 497.712 114.519, 481.400 100.110, 458.355 104.983 M 461.001 121.123 C 455.989 123.122, 451 129.520, 451 133.950 C 451 135.926, 451.545 136, 466.079 136 L 481.159 136 480.472 132.750 C 478.401 122.960, 469.590 117.699, 461.001 121.123 M 382.275 121.952 C 363.434 126.541, 366.951 166.013, 386.200 165.996 C 396.348 165.987, 401.360 158.741, 401.275 144.201 C 401.179 127.916, 393.708 119.166, 382.275 121.952 M 535.641 123.898 C 520.625 133.798, 526.329 165.983, 543.102 165.996 C 558.810 166.009, 564.462 130.978, 549.961 123.480 C 545.971 121.417, 539.101 121.617, 535.641 123.898 M 702 152.498 L 702 173.264 717.750 172.747 C 740.258 172.008, 745.587 169.670, 748.630 159.200 C 753.769 141.524, 743.916 133.050, 717.250 132.212 L 702 131.732 702 152.498"
     stroke="none"
     fill="#334552"
     fill-rule="evenodd"
     id="path4" />
  <path
     d="m 0,256.002 836.99165,-0.01 0.004,-255.9938328 L 419.004,0 H 0 M 351,128.5 V 182 h 5.932 c 6.117,0 8.312,-1.52 10.339,-7.158 0.493,-1.372 1.304,-0.986 4.681,2.227 13.904,13.227 39.395,5.859 46.948,-13.569 13.959,-35.905 -14.464,-72.463 -41.955,-53.963 -2.83,1.905 -5.213,3.464 -5.295,3.464 -0.083,10e-4 -0.01,-8.549 0.161,-19 L 372.121,75 H 361.561 351 v 53.5 m 206.272,-34.385 0.577,19.115 -2.674,-2.562 c -25.694,-24.61 -60.161,18.46 -44.004,54.987 8.169,18.467 34.436,24.297 46.244,10.264 l 2.461,-2.926 0.676,4.504 0.675,4.503 H 569.614 578 V 128.5 75 h -10.653 -10.653 l 0.578,19.115 M 139,129.158 V 182 h 37.5 37.5 v -9 -9 H 187 160 V 150.5 137 h 22 22 V 128.5 120 H 182 160 V 106.99 93.979 l 26.75,0.261 26.75,0.26 -0.354,-8.5 c -0.195,-4.675 -0.42,-8.559 -0.5,-8.631 -0.08,-0.072 -16.683,-0.339 -36.896,-0.592 L 139,76.317 v 52.841 M 597.932,106.75 c -0.037,16.912 -0.036,40.875 0.003,53.25 l 0.071,22.5 18.247,-0.025 C 658.321,182.418 675.202,165.973 673.712,126.5 672.316,89.513 656.703,76 615.364,76 H 598 l -0.068,30.75 M 691,129 v 53 l 9.75,0.244 c 21.518,0.537 33.501,-0.164 40.503,-2.369 24.013,-7.565 27.542,-37.865 5.795,-49.758 l -5.329,-2.914 3.89,-2.482 C 762.485,113.957 761.62,89.429 744.05,80.525 737.075,76.991 729.471,76 709.316,76 H 691 v 53 m -82,-0.017 v 44.244 l 13.75,-0.399 c 29.236,-0.85 41.461,-14.854 39.987,-45.809 -1.368,-28.751 -13.056,-40.9 -40.234,-41.822 L 609,84.739 v 44.244 m 93,-25.128 V 123 l 13.25,-0.006 c 22.981,-0.009 31.036,-5.072 31.036,-19.508 0,-13.232 -6.814,-17.443 -29.536,-18.252 L 702,84.709 v 19.146 m -442.5,1.08 c -4.497,1.095 -8.657,3.526 -11.937,6.976 C 243.652,116.024 243,115.822 243,110.5 V 106 h -9 -9 v 38.035 38.035 l 10.161,-0.285 10.162,-0.285 0.447,-26.5 c 0.383,-22.712 0.681,-26.765 2.086,-28.352 4.391,-4.963 13.972,-6.32 18.017,-2.552 3.791,3.532 4.127,6.175 4.127,32.469 V 182 h 10.5 10.5 l 0.015,-25.25 c 0.016,-27.689 0.185,-28.62 5.897,-32.47 C 311.04,114.76 316,123.263 316,157.003 v 25.067 l 10.25,-0.285 10.25,-0.285 -0.046,-28.5 c -0.046,-27.676 -0.115,-28.653 -2.392,-33.794 -6.882,-15.53 -28.674,-19.553 -41.833,-7.722 l -4.932,4.434 -4.977,-4.797 c -6.558,-6.32 -13.991,-8.335 -22.82,-6.186 m 198.855,0.048 c -34.13,7.218 -39.577,60.569 -7.687,75.287 12.576,5.804 34.948,1.912 44.266,-7.702 l 3.175,-3.276 -6.002,-5.199 -6.001,-5.199 -4.985,3.429 c -12.995,8.939 -27.912,3.971 -30.755,-10.243 L 449.75,149 h 25.741 25.742 l -0.689,-6.75 C 497.712,114.519 481.4,100.11 458.355,104.983 m 2.646,16.14 C 455.989,123.122 451,129.52 451,133.95 c 0,1.976 0.545,2.05 15.079,2.05 h 15.08 l -0.687,-3.25 c -2.071,-9.79 -10.882,-15.051 -19.471,-11.627 m -78.726,0.829 c -18.841,4.589 -15.324,44.061 3.925,44.044 10.148,-0.009 15.16,-7.255 15.075,-21.795 -0.096,-16.285 -7.567,-25.035 -19,-22.249 m 153.366,1.946 c -15.016,9.9 -9.312,42.085 7.461,42.098 15.708,0.013 21.36,-35.018 6.859,-42.516 -3.99,-2.063 -10.86,-1.863 -14.32,0.418 M 702,152.498 v 20.766 l 15.75,-0.517 c 22.508,-0.739 27.837,-3.077 30.88,-13.547 5.139,-17.676 -4.714,-26.15 -31.38,-26.988 L 702,131.732 v 20.766"
     stroke="none"
     fill="#c7c7c5"
     fill-rule="evenodd"
     id="path5"
     sodipodi:nodetypes="cccccccsccccccccccccccccccccccccccccccccccccccccccccccsscccscccsccccccccccsccccccscccccscccccsccccccccccscccccscccccccccccscccssccccccssccccsccccscccscccc" />
  <circle
     style="fill:#016fc4;fill-opacity:1"
     id="path6"
     cx="78.031883"
     cy="126.57941"
     r="16.775585" />
  <path
     id="rect6"
     style="fill:#00b9f1"
     d="m 63.798055,56.172791 c 6.828579,-7.653527 30.501063,-4.066808 30.501063,-4.066808 v 49.818397 c 0,0 -24.498883,3.02275 -31.263589,-5.083506 -8.687073,-10.409863 -8.263963,-30.551118 0.762526,-40.668083 z"
     sodipodi:nodetypes="accaa" />
  <path
     id="rect6-3"
     style="fill:#0284d8"
     d="m 63.984286,157.34154 c 6.598101,-7.71895 29.992715,-5.33769 29.992715,-5.33769 v 49.8184 c 0,0 -24.203258,2.04255 -30.755235,-6.10022 -8.02178,-9.96941 -7.55183,-28.65374 0.76252,-38.38049 z"
     sodipodi:nodetypes="sccss" />
</svg>
